<mxfile host="Electron" agent="Mozilla/5.0 (Macintosh; Intel Mac OS X 10_15_7) AppleWebKit/537.36 (KHTML, like Gecko) draw.io/24.7.17 Chrome/128.0.6613.36 Electron/32.0.1 Safari/537.36" version="24.7.17" pages="4">
  <diagram name="Page-1" id="Fl-X1VK6hz6Mulu4h1dK">
    <mxGraphModel dx="991" dy="784" grid="1" gridSize="10" guides="1" tooltips="1" connect="1" arrows="1" fold="1" page="1" pageScale="1" pageWidth="1169" pageHeight="827" math="0" shadow="0">
      <root>
        <mxCell id="0" />
        <mxCell id="1" parent="0" />
        <mxCell id="FsIzZkXbwgQpxsnsWu1A-2" value="&lt;h1 style=&quot;margin-top: 0px;&quot;&gt;Co:&lt;/h1&gt;&lt;p&gt;Platforma do korepetycji i pomocy w nauce (matematyki)&lt;/p&gt;" style="text;html=1;whiteSpace=wrap;overflow=hidden;rounded=0;fillColor=#f5f5f5;fontColor=#333333;strokeColor=#666666;perimeterSpacing=0;labelPadding=0;verticalAlign=top;labelBorderColor=none;spacingLeft=9;spacingRight=10;spacingTop=3;spacingBottom=3;" vertex="1" parent="1">
          <mxGeometry x="20" y="30" width="330" height="120" as="geometry" />
        </mxCell>
        <mxCell id="FsIzZkXbwgQpxsnsWu1A-3" value="&lt;h1 style=&quot;margin-top: 0px;&quot;&gt;Dlaczego:&lt;/h1&gt;&lt;p&gt;Uczeń uczy się najepiej rozwiązując zadania samemu. Ktoś kto rozwiązue za niego, albo nawet z nim (korepetytor) nie pomaga na dłuższą metę. Uczeń przestawia się na bierne zapamiętywanie schematu, który podaje mu korepetytor.&lt;/p&gt;&lt;p&gt;Rodzice chętnie płacą za edukację ich dzieci, jednak uczeń nie potrzebuje zazwyczaj korepetytora cały czas przy sobie.&lt;/p&gt;&lt;p&gt;Uczeń potrzebuje się skupić przed sesją nauki -&amp;gt; lobby, wyciszenie, medytacja, spisanie tego co aktualnie wierci w głowie&lt;/p&gt;" style="text;html=1;whiteSpace=wrap;overflow=hidden;rounded=0;fillColor=#f5f5f5;fontColor=#333333;strokeColor=#666666;perimeterSpacing=0;labelPadding=0;verticalAlign=top;labelBorderColor=none;spacingLeft=9;spacingRight=10;spacingTop=3;spacingBottom=3;" vertex="1" parent="1">
          <mxGeometry x="20" y="170" width="480" height="580" as="geometry" />
        </mxCell>
        <mxCell id="FsIzZkXbwgQpxsnsWu1A-4" value="&lt;h1 style=&quot;margin-top: 0px;&quot;&gt;Jak:&lt;/h1&gt;&lt;p&gt;&lt;br&gt;&lt;/p&gt;" style="text;html=1;whiteSpace=wrap;overflow=hidden;rounded=0;fillColor=#f5f5f5;fontColor=#333333;strokeColor=#666666;perimeterSpacing=0;labelPadding=0;verticalAlign=top;labelBorderColor=none;spacingLeft=9;spacingRight=10;spacingTop=3;spacingBottom=3;" vertex="1" parent="1">
          <mxGeometry x="530" y="30" width="520" height="720" as="geometry" />
        </mxCell>
        <mxCell id="FsIzZkXbwgQpxsnsWu1A-6" value="&lt;p style=&quot;color: rgb(51, 51, 51);&quot;&gt;Pokazując uczniowi zależność między tematami, &quot;składniki budulcowe&quot;, &quot;narzędzia&quot;, które są na lekcjach matematyki wprowadzanie naprzemian z zastosowaniem, utrudniają uczniowi zapamiętanie.&amp;nbsp;&lt;/p&gt;&lt;p style=&quot;color: rgb(51, 51, 51);&quot;&gt;Większość uczniów w drugiej czy trzeciej klasie liceum nie ma problemu z bieżącym materiałem ale nie potrafi rozwiązać zadań bo nie pamięta:&amp;nbsp; jak się wyłącza przed nawias, jak się rozwiązuje równania - kiedy to można zrobić, kiedy to się przydaje, Jak się. działa na potęgach. Dla uczniów to bardzo mylące, bo na lekcji próbują zapamiętać schemat rozwiązania danego typu zadania i nie pamiętają, nie zauważają że do rozwiązania tego zadania potrzeba zkładników budulcowych&lt;/p&gt;" style="rounded=0;whiteSpace=wrap;html=1;align=left;spacingLeft=5;spacingRight=5;" vertex="1" parent="1">
          <mxGeometry x="30" y="375" width="370" height="200" as="geometry" />
        </mxCell>
        <mxCell id="FsIzZkXbwgQpxsnsWu1A-9" value="&lt;p style=&quot;color: rgb(51, 51, 51);&quot;&gt;&lt;br&gt;&lt;/p&gt;" style="rounded=0;whiteSpace=wrap;html=1;align=left;spacingLeft=5;spacingRight=5;" vertex="1" parent="1">
          <mxGeometry x="610" y="140" width="370" height="200" as="geometry" />
        </mxCell>
        <mxCell id="FsIzZkXbwgQpxsnsWu1A-10" value="Warsztat: Obrazowo pokazać zależności między tematami, hierarchię prawd matematycznych i narzędzi" style="text;html=1;align=left;verticalAlign=middle;whiteSpace=wrap;rounded=0;" vertex="1" parent="1">
          <mxGeometry x="670" y="240" width="240" height="60" as="geometry" />
        </mxCell>
      </root>
    </mxGraphModel>
  </diagram>
  <diagram id="6BgyjFd2EbL8hkPM6_mg" name="Page-3">
    <mxGraphModel dx="933" dy="738" grid="1" gridSize="10" guides="1" tooltips="1" connect="1" arrows="1" fold="1" page="1" pageScale="1" pageWidth="1169" pageHeight="827" math="1" shadow="0">
      <root>
        <mxCell id="0" />
        <mxCell id="1" parent="0" />
        <mxCell id="1tsXwq09GpcvTvb0_7ZF-3" value="Zadanie X.Y.Z" style="swimlane;whiteSpace=wrap;html=1;fillColor=#A9C4EB;strokeColor=#6c8ebf;fillStyle=auto;swimlaneLine=1;rounded=0;swimlaneFillColor=#D4E1F5;" vertex="1" parent="1">
          <mxGeometry x="200" y="470" width="380" height="90" as="geometry" />
        </mxCell>
        <mxCell id="1tsXwq09GpcvTvb0_7ZF-4" value="&lt;span style=&quot;text-align: left; text-wrap: wrap;&quot;&gt;Dla jakich wartości \( m \) funkcja \(f(x) = (6m^2 - 12m)x - 5\)&lt;/span&gt;&lt;br style=&quot;text-align: left; text-wrap: wrap;&quot;&gt;&lt;span style=&quot;text-align: left; text-wrap: wrap;&quot;&gt;nie ma miejsc zerowych?&lt;/span&gt;" style="text;html=1;align=center;verticalAlign=middle;resizable=0;points=[];autosize=1;strokeColor=none;fillColor=none;" vertex="1" parent="1tsXwq09GpcvTvb0_7ZF-3">
          <mxGeometry x="10" y="30" width="340" height="40" as="geometry" />
        </mxCell>
        <mxCell id="1tsXwq09GpcvTvb0_7ZF-18" style="edgeStyle=orthogonalEdgeStyle;rounded=1;orthogonalLoop=1;jettySize=auto;html=1;entryX=0.5;entryY=0;entryDx=0;entryDy=0;curved=0;" edge="1" parent="1" source="1tsXwq09GpcvTvb0_7ZF-7" target="1tsXwq09GpcvTvb0_7ZF-8">
          <mxGeometry relative="1" as="geometry" />
        </mxCell>
        <mxCell id="1tsXwq09GpcvTvb0_7ZF-7" value="Funkcja" style="rounded=0;whiteSpace=wrap;html=1;fillColor=#d5e8d4;strokeColor=#82b366;" vertex="1" parent="1">
          <mxGeometry x="100" y="120" width="130" height="40" as="geometry" />
        </mxCell>
        <mxCell id="1tsXwq09GpcvTvb0_7ZF-11" style="edgeStyle=orthogonalEdgeStyle;rounded=1;orthogonalLoop=1;jettySize=auto;html=1;entryX=0.5;entryY=0;entryDx=0;entryDy=0;curved=0;" edge="1" parent="1" source="1tsXwq09GpcvTvb0_7ZF-8" target="1tsXwq09GpcvTvb0_7ZF-9">
          <mxGeometry relative="1" as="geometry" />
        </mxCell>
        <mxCell id="1tsXwq09GpcvTvb0_7ZF-17" style="edgeStyle=orthogonalEdgeStyle;rounded=1;orthogonalLoop=1;jettySize=auto;html=1;entryX=0.5;entryY=0;entryDx=0;entryDy=0;curved=0;" edge="1" parent="1" source="1tsXwq09GpcvTvb0_7ZF-8" target="1tsXwq09GpcvTvb0_7ZF-16">
          <mxGeometry relative="1" as="geometry" />
        </mxCell>
        <mxCell id="1tsXwq09GpcvTvb0_7ZF-8" value="Funkcja liniowa" style="rounded=0;whiteSpace=wrap;html=1;fillColor=#d5e8d4;strokeColor=#82b366;" vertex="1" parent="1">
          <mxGeometry x="100" y="200" width="130" height="40" as="geometry" />
        </mxCell>
        <mxCell id="1tsXwq09GpcvTvb0_7ZF-28" style="edgeStyle=orthogonalEdgeStyle;rounded=1;orthogonalLoop=1;jettySize=auto;html=1;curved=0;" edge="1" parent="1" source="1tsXwq09GpcvTvb0_7ZF-9" target="1tsXwq09GpcvTvb0_7ZF-3">
          <mxGeometry relative="1" as="geometry">
            <Array as="points">
              <mxPoint x="105" y="410" />
              <mxPoint x="390" y="410" />
            </Array>
          </mxGeometry>
        </mxCell>
        <mxCell id="1tsXwq09GpcvTvb0_7ZF-9" value="Monotoniczność" style="rounded=0;whiteSpace=wrap;html=1;fillColor=#d5e8d4;strokeColor=#82b366;" vertex="1" parent="1">
          <mxGeometry x="40" y="280" width="130" height="40" as="geometry" />
        </mxCell>
        <mxCell id="1tsXwq09GpcvTvb0_7ZF-29" style="edgeStyle=orthogonalEdgeStyle;rounded=1;orthogonalLoop=1;jettySize=auto;html=1;entryX=0.5;entryY=0;entryDx=0;entryDy=0;curved=0;" edge="1" parent="1" source="1tsXwq09GpcvTvb0_7ZF-16" target="1tsXwq09GpcvTvb0_7ZF-3">
          <mxGeometry relative="1" as="geometry" />
        </mxCell>
        <mxCell id="1tsXwq09GpcvTvb0_7ZF-16" value="Miejsce zerowe" style="rounded=0;whiteSpace=wrap;html=1;fillColor=#d5e8d4;strokeColor=#82b366;" vertex="1" parent="1">
          <mxGeometry x="210" y="280" width="130" height="40" as="geometry" />
        </mxCell>
        <mxCell id="1tsXwq09GpcvTvb0_7ZF-20" style="edgeStyle=orthogonalEdgeStyle;rounded=1;orthogonalLoop=1;jettySize=auto;html=1;dashed=1;curved=0;" edge="1" parent="1" source="1tsXwq09GpcvTvb0_7ZF-19" target="1tsXwq09GpcvTvb0_7ZF-3">
          <mxGeometry relative="1" as="geometry">
            <Array as="points">
              <mxPoint x="615" y="340" />
              <mxPoint x="390" y="340" />
            </Array>
          </mxGeometry>
        </mxCell>
        <mxCell id="1tsXwq09GpcvTvb0_7ZF-19" value="Równania z parametrem" style="rounded=0;whiteSpace=wrap;html=1;fillColor=#ffe6cc;strokeColor=#d79b00;" vertex="1" parent="1">
          <mxGeometry x="550" y="200" width="130" height="40" as="geometry" />
        </mxCell>
        <mxCell id="1tsXwq09GpcvTvb0_7ZF-23" style="edgeStyle=orthogonalEdgeStyle;rounded=1;orthogonalLoop=1;jettySize=auto;html=1;entryX=0.5;entryY=0;entryDx=0;entryDy=0;curved=0;" edge="1" parent="1" source="1tsXwq09GpcvTvb0_7ZF-22" target="1tsXwq09GpcvTvb0_7ZF-3">
          <mxGeometry relative="1" as="geometry" />
        </mxCell>
        <mxCell id="1tsXwq09GpcvTvb0_7ZF-24" style="edgeStyle=orthogonalEdgeStyle;rounded=1;orthogonalLoop=1;jettySize=auto;html=1;curved=0;" edge="1" parent="1" source="1tsXwq09GpcvTvb0_7ZF-22" target="1tsXwq09GpcvTvb0_7ZF-19">
          <mxGeometry relative="1" as="geometry">
            <Array as="points">
              <mxPoint x="455" y="150" />
              <mxPoint x="615" y="150" />
            </Array>
          </mxGeometry>
        </mxCell>
        <mxCell id="1tsXwq09GpcvTvb0_7ZF-26" style="edgeStyle=orthogonalEdgeStyle;rounded=1;orthogonalLoop=1;jettySize=auto;html=1;startArrow=classic;startFill=1;endArrow=none;endFill=0;curved=0;" edge="1" parent="1" source="1tsXwq09GpcvTvb0_7ZF-22">
          <mxGeometry relative="1" as="geometry">
            <mxPoint x="455" y="40" as="targetPoint" />
          </mxGeometry>
        </mxCell>
        <mxCell id="1tsXwq09GpcvTvb0_7ZF-22" value="Równania" style="rounded=0;whiteSpace=wrap;html=1;fillColor=#d5e8d4;strokeColor=#82b366;" vertex="1" parent="1">
          <mxGeometry x="390" y="80" width="130" height="40" as="geometry" />
        </mxCell>
        <mxCell id="1tsXwq09GpcvTvb0_7ZF-27" style="edgeStyle=orthogonalEdgeStyle;rounded=1;orthogonalLoop=1;jettySize=auto;html=1;startArrow=classic;startFill=1;endArrow=none;endFill=0;exitX=0.5;exitY=0;exitDx=0;exitDy=0;curved=0;" edge="1" parent="1" source="1tsXwq09GpcvTvb0_7ZF-7">
          <mxGeometry relative="1" as="geometry">
            <mxPoint x="165" y="40" as="targetPoint" />
            <mxPoint x="465" y="90" as="sourcePoint" />
            <Array as="points">
              <mxPoint x="165" y="100" />
              <mxPoint x="165" y="100" />
            </Array>
          </mxGeometry>
        </mxCell>
      </root>
    </mxGraphModel>
  </diagram>
  <diagram id="-I7cIvrP9AQaiK2RtB8j" name="Page-4">
    <mxGraphModel dx="1220" dy="965" grid="1" gridSize="10" guides="1" tooltips="1" connect="1" arrows="1" fold="1" page="1" pageScale="1" pageWidth="1169" pageHeight="827" math="1" shadow="0">
      <root>
        <mxCell id="0" />
        <mxCell id="1" parent="0" />
        <mxCell id="h1u-kdpZtaLinIQzNxzT-1" value="Zadanie X.Y.Z" style="swimlane;whiteSpace=wrap;html=1;fillColor=#A9C4EB;strokeColor=#6c8ebf;fillStyle=auto;swimlaneLine=1;rounded=0;swimlaneFillColor=#D4E1F5;" vertex="1" parent="1">
          <mxGeometry x="650" y="20" width="350" height="115" as="geometry" />
        </mxCell>
        <mxCell id="h1u-kdpZtaLinIQzNxzT-2" value="&lt;p style=&quot;line-height: 120%;&quot;&gt;&lt;br&gt;&lt;/p&gt;" style="text;html=1;align=left;verticalAlign=middle;resizable=0;points=[];autosize=1;strokeColor=none;fillColor=none;spacingTop=0;horizontal=1;" vertex="1" parent="h1u-kdpZtaLinIQzNxzT-1">
          <mxGeometry x="90" y="55" width="20" height="50" as="geometry" />
        </mxCell>
        <mxCell id="h1u-kdpZtaLinIQzNxzT-21" value="Dla jakich wartości \( m \) funkcja \(f(x) = (6m^2 - 12m)x - 5\)&lt;br&gt;nie ma miejsc zerowych?" style="text;html=1;align=left;verticalAlign=middle;whiteSpace=wrap;rounded=0;" vertex="1" parent="h1u-kdpZtaLinIQzNxzT-1">
          <mxGeometry x="10" y="20" width="340" height="65" as="geometry" />
        </mxCell>
        <mxCell id="h1u-kdpZtaLinIQzNxzT-26" style="edgeStyle=orthogonalEdgeStyle;rounded=1;orthogonalLoop=1;jettySize=auto;html=1;entryX=0;entryY=0.5;entryDx=0;entryDy=0;curved=0;" edge="1" parent="1" source="h1u-kdpZtaLinIQzNxzT-4" target="h1u-kdpZtaLinIQzNxzT-7">
          <mxGeometry relative="1" as="geometry" />
        </mxCell>
        <mxCell id="h1u-kdpZtaLinIQzNxzT-32" style="edgeStyle=orthogonalEdgeStyle;rounded=1;orthogonalLoop=1;jettySize=auto;html=1;entryX=0;entryY=0.5;entryDx=0;entryDy=0;curved=0;" edge="1" parent="1" source="h1u-kdpZtaLinIQzNxzT-4" target="h1u-kdpZtaLinIQzNxzT-9">
          <mxGeometry relative="1" as="geometry" />
        </mxCell>
        <mxCell id="h1u-kdpZtaLinIQzNxzT-4" value="Funkcja" style="rounded=0;whiteSpace=wrap;html=1;fillColor=#d5e8d4;strokeColor=#82b366;" vertex="1" parent="1">
          <mxGeometry x="10" y="260" width="130" height="40" as="geometry" />
        </mxCell>
        <mxCell id="h1u-kdpZtaLinIQzNxzT-25" style="edgeStyle=orthogonalEdgeStyle;rounded=1;orthogonalLoop=1;jettySize=auto;html=1;entryX=0;entryY=0.5;entryDx=0;entryDy=0;curved=0;" edge="1" parent="1" source="h1u-kdpZtaLinIQzNxzT-7" target="h1u-kdpZtaLinIQzNxzT-11">
          <mxGeometry relative="1" as="geometry" />
        </mxCell>
        <mxCell id="h1u-kdpZtaLinIQzNxzT-27" style="edgeStyle=orthogonalEdgeStyle;rounded=1;orthogonalLoop=1;jettySize=auto;html=1;entryX=0;entryY=0.5;entryDx=0;entryDy=0;fillColor=#d5e8d4;strokeColor=#82b366;curved=0;" edge="1" parent="1" source="h1u-kdpZtaLinIQzNxzT-7" target="h1u-kdpZtaLinIQzNxzT-20">
          <mxGeometry relative="1" as="geometry" />
        </mxCell>
        <mxCell id="h1u-kdpZtaLinIQzNxzT-31" style="edgeStyle=orthogonalEdgeStyle;rounded=1;orthogonalLoop=1;jettySize=auto;html=1;entryX=0;entryY=0.5;entryDx=0;entryDy=0;curved=0;" edge="1" parent="1" source="h1u-kdpZtaLinIQzNxzT-7" target="h1u-kdpZtaLinIQzNxzT-9">
          <mxGeometry relative="1" as="geometry">
            <Array as="points">
              <mxPoint x="310" y="240" />
              <mxPoint x="310" y="370" />
            </Array>
          </mxGeometry>
        </mxCell>
        <mxCell id="h1u-kdpZtaLinIQzNxzT-7" value="Funkcja liniowa" style="rounded=0;whiteSpace=wrap;html=1;fillColor=#d5e8d4;strokeColor=#82b366;" vertex="1" parent="1">
          <mxGeometry x="170" y="220" width="130" height="40" as="geometry" />
        </mxCell>
        <mxCell id="h1u-kdpZtaLinIQzNxzT-30" style="edgeStyle=orthogonalEdgeStyle;rounded=1;orthogonalLoop=1;jettySize=auto;html=1;entryX=0;entryY=0.5;entryDx=0;entryDy=0;fillColor=#d5e8d4;strokeColor=#82b366;curved=0;" edge="1" parent="1" source="h1u-kdpZtaLinIQzNxzT-9" target="h1u-kdpZtaLinIQzNxzT-29">
          <mxGeometry relative="1" as="geometry" />
        </mxCell>
        <mxCell id="h1u-kdpZtaLinIQzNxzT-9" value="Monotoniczność" style="rounded=0;whiteSpace=wrap;html=1;fillColor=#d5e8d4;strokeColor=#82b366;" vertex="1" parent="1">
          <mxGeometry x="330" y="350" width="130" height="40" as="geometry" />
        </mxCell>
        <mxCell id="h1u-kdpZtaLinIQzNxzT-28" style="edgeStyle=orthogonalEdgeStyle;rounded=1;orthogonalLoop=1;jettySize=auto;html=1;fillColor=#d5e8d4;strokeColor=#82b366;curved=0;" edge="1" parent="1" source="h1u-kdpZtaLinIQzNxzT-11" target="h1u-kdpZtaLinIQzNxzT-23">
          <mxGeometry relative="1" as="geometry" />
        </mxCell>
        <mxCell id="h1u-kdpZtaLinIQzNxzT-11" value="Miejsce zerowe" style="rounded=0;whiteSpace=wrap;html=1;fillColor=#d5e8d4;strokeColor=#82b366;" vertex="1" parent="1">
          <mxGeometry x="330" y="260" width="130" height="40" as="geometry" />
        </mxCell>
        <mxCell id="h1u-kdpZtaLinIQzNxzT-13" value="Równania z parametrem" style="rounded=0;whiteSpace=wrap;html=1;fillColor=#ffe6cc;strokeColor=#d79b00;" vertex="1" parent="1">
          <mxGeometry x="220" y="500" width="130" height="40" as="geometry" />
        </mxCell>
        <mxCell id="h1u-kdpZtaLinIQzNxzT-38" style="edgeStyle=orthogonalEdgeStyle;rounded=1;orthogonalLoop=1;jettySize=auto;html=1;entryX=0;entryY=0.5;entryDx=0;entryDy=0;curved=0;" edge="1" parent="1" source="h1u-kdpZtaLinIQzNxzT-17" target="h1u-kdpZtaLinIQzNxzT-13">
          <mxGeometry relative="1" as="geometry" />
        </mxCell>
        <mxCell id="h1u-kdpZtaLinIQzNxzT-17" value="Równania" style="rounded=0;whiteSpace=wrap;html=1;fillColor=#d5e8d4;strokeColor=#82b366;" vertex="1" parent="1">
          <mxGeometry x="20" y="560" width="130" height="40" as="geometry" />
        </mxCell>
        <mxCell id="h1u-kdpZtaLinIQzNxzT-19" value="&lt;b&gt;Rozwiązanie:&lt;/b&gt;" style="text;html=1;align=center;verticalAlign=middle;whiteSpace=wrap;rounded=0;" vertex="1" parent="1">
          <mxGeometry x="570" y="135" width="60" height="30" as="geometry" />
        </mxCell>
        <mxCell id="h1u-kdpZtaLinIQzNxzT-20" value="&lt;div style=&quot;text-align: left;&quot;&gt;&lt;span style=&quot;background-color: initial;&quot;&gt;Jest to funkcja liniowa, pasuje do wzoru \(f(x) = ax+b\)&lt;/span&gt;&lt;/div&gt;&lt;div&gt;&lt;div style=&quot;text-align: left;&quot;&gt;&amp;nbsp;&lt;span style=&quot;background-color: initial;&quot;&gt;\( a = (6m^2 - 12m) \)&lt;/span&gt;&lt;/div&gt;&lt;div style=&quot;text-align: left;&quot;&gt;&lt;span style=&quot;background-color: initial;&quot;&gt;\( b = -5\)&lt;/span&gt;&lt;/div&gt;&lt;/div&gt;" style="rounded=1;whiteSpace=wrap;html=1;spacingLeft=5;" vertex="1" parent="1">
          <mxGeometry x="600" y="180" width="250" height="80" as="geometry" />
        </mxCell>
        <mxCell id="h1u-kdpZtaLinIQzNxzT-23" value="&lt;div style=&quot;text-align: left;&quot;&gt;Miejsce zerowe to punkt, w którym funkcja przecina oś OX&lt;br&gt;&lt;/div&gt;" style="rounded=1;whiteSpace=wrap;html=1;spacingLeft=5;" vertex="1" parent="1">
          <mxGeometry x="870" y="230" width="250" height="80" as="geometry" />
        </mxCell>
        <mxCell id="h1u-kdpZtaLinIQzNxzT-29" value="&lt;div style=&quot;text-align: left;&quot;&gt;Żeby funkcja liniowa nie miała miejsca zerowego, musi być prostopadła z osią OX, żeby nigdy jej nie przeciąć. To znaczy, że nie może być ani rosnąca, ani malejąca, stąd&lt;br&gt;&lt;/div&gt;&lt;div style=&quot;text-align: left;&quot;&gt;&lt;div&gt;&lt;span style=&quot;background-color: initial;&quot;&gt;\( a = (6m^2 - 12m) = 0 \)&lt;/span&gt;&lt;/div&gt;&lt;div&gt;&lt;span style=&quot;background-color: initial;&quot;&gt;i&amp;nbsp;&lt;/span&gt;&lt;span style=&quot;background-color: initial;&quot;&gt;\( b = -5 \neq 0\) warunek spełniony&lt;/span&gt;&lt;/div&gt;&lt;div&gt;&lt;span style=&quot;background-color: initial;&quot;&gt;&lt;br&gt;&lt;/span&gt;&lt;/div&gt;&lt;/div&gt;" style="rounded=1;whiteSpace=wrap;html=1;spacingLeft=5;" vertex="1" parent="1">
          <mxGeometry x="600" y="340" width="250" height="120" as="geometry" />
        </mxCell>
        <mxCell id="h1u-kdpZtaLinIQzNxzT-33" value="&lt;div style=&quot;&quot;&gt;&lt;span style=&quot;background-color: initial;&quot;&gt;Obliczam:&lt;/span&gt;&lt;/div&gt;&lt;div style=&quot;&quot;&gt;&lt;span style=&quot;background-color: initial;&quot;&gt;\( a = (6m^2 - 12m) = 0 \)&lt;/span&gt;&lt;br&gt;&lt;/div&gt;&lt;div style=&quot;&quot;&gt;&lt;div style=&quot;&quot;&gt;&lt;div&gt;&lt;span style=&quot;background-color: initial;&quot;&gt;\( 6m^2 - 12m = 0 \) Wyłączam m przed nawias&lt;/span&gt;&lt;br&gt;&lt;/div&gt;&lt;div&gt;&amp;nbsp;\( 6m(m - 2) = 0 \) Wyciągnięcie czynnika przed nawias  &lt;br&gt;&lt;br&gt;&lt;/div&gt;&lt;div&gt;Rozwiązuję równanie&lt;/div&gt;&lt;div&gt;&amp;nbsp;\( 6m = 0 \) lub \( m - 2 = 0 \)&lt;/div&gt;&lt;div&gt;Obliczam wartości&lt;span style=&quot;background-color: initial;&quot;&gt;&amp;nbsp;\( m \)&lt;/span&gt;&lt;/div&gt;&lt;div&gt;&lt;span style=&quot;background-color: initial;&quot;&gt;\( m = 0 \) lub \( m = 2 \)&amp;nbsp;&amp;nbsp;&lt;/span&gt;&lt;br&gt;&lt;/div&gt;&lt;div&gt;&lt;span style=&quot;color: rgba(0, 0, 0, 0); font-family: monospace; font-size: 0px; text-wrap: nowrap;&quot;&gt;%3CmxGraphModel%3E%3Croot%3E%3CmxCell%20id%3D%220%22%2F%3E%3CmxCell%20id%3D%221%22%20parent%3D%220%22%2F%3E%3CmxCell%20id%3D%222%22%20value%3D%22R%C3%B3wnania%22%20style%3D%22rounded%3D0%3BwhiteSpace%3Dwrap%3Bhtml%3D1%3BfillColor%3D%23d5e8d4%3BstrokeColor%3D%2382b366%3B%22%20vertex%3D%221%22%20parent%3D%221%22%3E%3CmxGeometry%20x%3D%2210%22%20y%3D%22400%22%20width%3D%22130%22%20height%3D%2240%22%20as%3D%22geometry%22%2F%3E%3C%2FmxCell%3E%3C%2Froot%3E%3C%2FmxGraphModel%3E&lt;/span&gt;&lt;br&gt;&lt;/div&gt;&lt;/div&gt;&lt;/div&gt;" style="rounded=1;whiteSpace=wrap;html=1;spacingLeft=5;align=left;" vertex="1" parent="1">
          <mxGeometry x="870" y="450" width="270" height="190" as="geometry" />
        </mxCell>
        <mxCell id="h1u-kdpZtaLinIQzNxzT-37" style="edgeStyle=orthogonalEdgeStyle;rounded=1;orthogonalLoop=1;jettySize=auto;html=1;entryX=0;entryY=0.25;entryDx=0;entryDy=0;fillColor=#d5e8d4;strokeColor=#82b366;curved=0;" edge="1" parent="1" source="h1u-kdpZtaLinIQzNxzT-34" target="h1u-kdpZtaLinIQzNxzT-33">
          <mxGeometry relative="1" as="geometry" />
        </mxCell>
        <mxCell id="h1u-kdpZtaLinIQzNxzT-34" value="Wyłączanie przed nawias" style="rounded=0;whiteSpace=wrap;html=1;fillColor=#d5e8d4;strokeColor=#82b366;" vertex="1" parent="1">
          <mxGeometry x="10" y="430" width="130" height="40" as="geometry" />
        </mxCell>
        <mxCell id="h1u-kdpZtaLinIQzNxzT-39" style="edgeStyle=orthogonalEdgeStyle;rounded=1;orthogonalLoop=1;jettySize=auto;html=1;entryX=0.008;entryY=0.561;entryDx=0;entryDy=0;entryPerimeter=0;fillColor=#d5e8d4;strokeColor=#82b366;curved=0;" edge="1" parent="1" source="h1u-kdpZtaLinIQzNxzT-17" target="h1u-kdpZtaLinIQzNxzT-33">
          <mxGeometry relative="1" as="geometry" />
        </mxCell>
      </root>
    </mxGraphModel>
  </diagram>
  <diagram id="YAAMGZ_y4twM1stIBKph" name="Page-5">
    <mxGraphModel dx="2205" dy="1395" grid="1" gridSize="10" guides="1" tooltips="1" connect="1" arrows="1" fold="1" page="1" pageScale="1" pageWidth="1169" pageHeight="827" math="1" shadow="0">
      <root>
        <mxCell id="0" />
        <mxCell id="1" parent="0" />
        <mxCell id="mt4AlApXtxiHoQFK07yj-1" value="&lt;h1 style=&quot;margin-top: 0px;&quot;&gt;&lt;span style=&quot;background-color: initial;&quot;&gt;Istniejące rozwiązania&lt;/span&gt;&lt;span style=&quot;background-color: initial; font-size: 12px; font-weight: normal;&quot;&gt;:&lt;/span&gt;&lt;/h1&gt;&lt;p&gt;Photomath - oblicza zadania (proste i skomplikowane zadania obliczeniowe&lt;/p&gt;&lt;p&gt;Minusy: nie rozwiązuje wszystkich zadań z podstawy programowej, nie podaje bezpośrednio narzędzi, które są wykorzystywane do rozwiązania zadań&lt;/p&gt;&lt;p&gt;&lt;br&gt;&lt;/p&gt;&lt;p&gt;&lt;br&gt;&lt;/p&gt;" style="text;html=1;whiteSpace=wrap;overflow=hidden;rounded=0;fillColor=#f5f5f5;fontColor=#333333;strokeColor=#666666;perimeterSpacing=0;labelPadding=0;verticalAlign=top;labelBorderColor=none;spacingLeft=9;spacingRight=10;spacingTop=3;spacingBottom=3;" vertex="1" parent="1">
          <mxGeometry x="30" y="40" width="480" height="580" as="geometry" />
        </mxCell>
      </root>
    </mxGraphModel>
  </diagram>
</mxfile>
